<svg width="133" height="121" viewBox="0 0 133 121" fill="none" xmlns="http://www.w3.org/2000/svg">
<path d="M23.4559 41.0556C24.4107 41.533 27.1159 42.7741 30.744 42.7741C32.1125 42.7741 33.6401 42.5832 35.2314 42.1376C36.7272 41.7239 37.2046 40.7691 37.0136 40.1008C36.8545 39.4961 36.0907 38.9869 34.8177 39.3052C30.4576 40.4827 27.8797 39.878 24.8881 38.4777C19.9233 36.1544 15.4995 30.6486 13.9401 27.466C13.781 27.116 13.4945 26.8614 13.1126 26.7659C12.7625 26.6386 12.3806 26.6704 12.0306 26.8295C11.3304 27.1796 11.044 28.0389 11.394 28.7391C14.5766 35.1678 20.4643 39.5279 23.4559 41.0556Z" fill="#FF65AF"/>
<path d="M132.299 14.6721C132.299 14.6721 132.108 14.5129 132.013 14.4175C131.249 13.8764 130.263 13.8128 129.467 14.2265L129.34 14.2902L125.775 17.791C125.775 17.791 125.743 17.791 125.711 17.791C125.711 17.791 125.711 17.7592 125.711 17.7273L130.708 10.2801C131.313 9.29356 131.249 8.17966 130.517 7.44767C129.817 6.74751 128.703 6.65203 127.748 7.22489L127.589 7.32037L119.76 13.3354H119.696C119.696 13.3354 119.696 13.3036 119.696 13.2718L125.807 5.28353V5.21988C126.38 4.29694 126.284 3.18304 125.584 2.48288C124.852 1.75089 123.738 1.68724 122.784 2.29193L115.336 7.28854C115.336 7.28854 115.305 7.28854 115.273 7.28854V7.22489L118.742 3.72408L118.869 3.53313C119.283 2.70566 119.219 1.75089 118.71 0.98708C118.614 0.891603 118.551 0.764301 118.455 0.70065C117.914 0.159615 117.15 -0.0949898 116.387 0.0323125C109.099 1.27351 101.078 5.85639 94.3633 12.5716C85.6749 21.26 82.8106 29.9802 85.6113 39.2414C85.6113 39.2414 85.6113 39.2733 85.6113 39.3051L85.0066 39.9098L84.02 40.8964C79.2143 38.1594 73.9631 36.6317 68.4254 36.3771C68.1708 36.3771 67.8844 36.3771 67.6298 36.3453H67.4707C66.8023 36.3453 66.1658 36.3453 65.4975 36.3453H65.2747C64.9565 36.3453 64.6382 36.3771 64.3199 36.409H64.1608C58.8459 36.7909 53.8175 38.2867 49.2028 40.9282L47.5797 39.3369C47.5797 39.3369 47.5797 39.3051 47.5797 39.2733C50.3485 30.012 47.4842 21.26 38.8277 12.6034C31.9533 5.95187 23.9333 1.36899 16.6452 0.0959637C15.8814 -0.0313386 15.1176 0.223266 14.5766 0.764301C14.4811 0.859778 14.3856 0.955254 14.322 1.05073C13.7809 1.81454 13.7173 2.76931 14.1628 3.59678L14.2265 3.7559L17.7273 7.28854C17.7273 7.28854 17.7273 7.32037 17.7273 7.3522C17.7273 7.3522 17.6955 7.3522 17.6637 7.3522L10.2165 2.41923C9.2617 1.78272 8.1478 1.84637 7.41582 2.57836C6.71565 3.27852 6.62018 4.36059 7.16121 5.31536L7.22486 5.41083L13.3354 13.3672V13.4309C13.3354 13.4309 13.3035 13.4309 13.2717 13.4309L5.44263 7.41585L5.2835 7.32037C4.32873 6.74751 3.21484 6.84299 2.51468 7.54315C1.78269 8.27514 1.71904 9.38903 2.32372 10.3756L7.32034 17.791C7.32034 17.791 7.32034 17.8228 7.32034 17.8546H7.25669L3.85135 14.4811L3.72405 14.3538L3.5331 14.2583C2.70563 13.8128 1.75086 13.8764 0.987049 14.4493C0.891573 14.513 0.796096 14.6084 0.700619 14.7039C0.159584 15.2449 -0.0950203 16.0088 0.032282 16.7726C0.668794 20.4007 2.06912 24.1879 4.23326 27.9752C6.3974 31.7942 9.19805 35.4224 12.5397 38.7959C21.2281 47.4842 29.8847 50.4122 39.0823 47.707L39.8461 48.4708L39.7188 48.63C34.1175 55.0906 31.0304 63.3334 31.0304 71.8945C31.0304 78.005 32.6217 84.02 35.6133 89.3349L14.322 110.658C13.2081 111.772 12.6034 113.268 12.6034 114.827C12.6034 116.387 13.2081 117.851 14.322 118.964C15.4359 120.078 16.9317 120.683 18.4911 120.683C19.8596 120.683 21.1645 120.206 22.2147 119.346L43.0923 98.5961C43.506 98.978 43.8879 99.2963 44.2698 99.5827L44.429 99.6782C49.8711 104.006 56.3954 106.616 63.3015 107.253H63.4607C63.6516 107.285 63.8426 107.285 64.0335 107.316H64.3199C64.4791 107.316 64.67 107.348 64.8292 107.348C64.9565 107.348 65.0519 107.348 65.1792 107.348H65.3065C65.3065 107.348 65.5293 107.348 65.6566 107.348C65.8794 107.348 66.134 107.348 66.3568 107.348H66.4841C66.7705 107.348 67.0888 107.348 67.3752 107.348H67.4389C67.7253 107.348 68.0117 107.348 68.2981 107.316H68.3618C68.6482 107.316 68.9028 107.285 69.1893 107.253H69.2529C69.5393 107.253 69.8258 107.189 70.0804 107.157H70.1122C77.4639 106.393 84.3064 103.402 89.8759 98.5325L110.785 119.315C111.836 120.206 113.14 120.651 114.509 120.651C116.068 120.651 117.564 120.047 118.678 118.933C119.792 117.819 120.397 116.355 120.397 114.795C120.397 113.236 119.792 111.74 118.678 110.626L97.3549 89.3031C100.347 84.02 101.938 77.9732 101.938 71.8626C101.938 63.2379 98.8189 54.9314 93.1221 48.4708L93.9177 47.6752C103.084 50.3804 111.772 47.4524 120.46 38.764C123.802 35.3905 126.603 31.7624 128.767 27.9433C130.931 24.1243 132.331 20.3689 132.968 16.7407C133.095 15.9769 132.84 15.2131 132.299 14.6721ZM93.504 45.0973H93.4404C93.4404 45.0973 93.4085 45.0973 93.3767 45.0973C93.313 45.0973 93.2176 45.1292 93.1539 45.161C93.1539 45.161 92.9948 45.2246 92.9311 45.2565C92.6129 45.3838 92.3265 45.5747 92.0719 45.8293L91.3717 46.5295C89.8122 45.0019 88.0937 43.6015 86.2796 42.3922L87.4571 41.2146C88.1573 40.5145 88.4119 39.496 88.1255 38.5731C85.6431 30.2984 88.3164 22.4375 96.241 14.4811C102.352 8.37061 109.544 4.13781 116.1 2.83296L113.459 5.47449C112.504 6.46108 112.44 7.98871 113.3 9.03895C113.363 9.1026 113.395 9.16625 113.459 9.2299C114.35 10.121 115.782 10.2801 116.832 9.54816L122.02 6.07917L117.66 11.7441C116.864 12.7625 116.959 14.2583 117.851 15.1813L117.914 15.2768L118.01 15.3404C118.964 16.1997 120.397 16.2315 121.415 15.4677L127.08 11.1076L123.579 16.2952C123.229 16.8044 123.07 17.4409 123.134 18.0456C123.197 18.6503 123.484 19.2231 123.897 19.6369C123.961 19.7005 124.025 19.7642 124.088 19.796C125.139 20.6553 126.666 20.5916 127.653 19.6369L130.294 16.9953C129.658 20.1143 128.417 23.3286 126.539 26.6385C124.502 30.2348 121.829 33.7038 118.646 36.8863C111.04 44.4926 103.529 47.2933 95.7636 45.4156C95.3499 45.3201 94.9998 45.2246 94.6815 45.1292C94.3633 45.0337 94.0132 45.0019 93.6631 45.0337C93.6313 45.0337 93.5676 45.0337 93.5358 45.0337L93.504 45.0973ZM89.7168 48.6618C90.0987 49.0437 90.4806 49.4574 90.8625 49.8712C91.3399 50.4122 91.8491 50.9851 92.2946 51.5579C94.1087 53.8494 95.6045 56.3954 96.7502 59.1006C98.4688 63.1424 99.3281 67.4389 99.3281 71.8945C99.3281 73.995 99.1371 76.0954 98.7234 78.1323L83.9245 54.7723C83.6699 54.3904 83.2562 54.1676 82.8106 54.1676C82.3651 54.1676 81.9513 54.3904 81.6967 54.7723L76.5091 62.9833L67.6298 48.9801C67.3752 48.5981 66.9615 48.3754 66.5159 48.3754C66.0704 48.3754 65.6566 48.5981 65.402 48.9801L56.5227 62.9833L51.3351 54.7723C51.0805 54.3904 50.6668 54.1676 50.2212 54.1676C49.8075 54.1676 49.3938 54.3586 49.1391 54.7087C49.1391 54.7087 49.1391 54.7405 49.1073 54.7723L34.3084 78.1323C33.9265 76.0954 33.7037 73.995 33.7037 71.8945C33.7037 67.4707 34.563 63.1743 36.2816 59.1006C37.6501 55.8862 39.4642 52.9582 41.7556 50.3486C42.233 49.8075 42.7422 49.2665 43.2514 48.7254L43.3151 48.6618C44.9382 47.0387 46.7204 45.5747 48.6299 44.3335C49.2665 43.9198 49.903 43.5379 50.5713 43.156C51.6215 42.5831 52.6718 42.0739 53.7539 41.5965C57.7957 39.8779 62.0922 39.0186 66.5477 39.0186C71.0033 39.0186 75.268 39.8779 79.3416 41.5965C80.9329 42.2649 82.4605 43.0605 83.9245 43.9834C84.561 44.3653 85.1657 44.8109 85.7704 45.2246C87.1707 46.2431 88.5392 47.3888 89.7486 48.63L89.7168 48.6618ZM84.7838 82.3014C85.1339 81.7922 85.1021 81.0921 84.6883 80.6147C84.4337 80.3282 84.0836 80.2009 83.7336 80.2009C83.5108 80.2009 83.2562 80.2646 83.0334 80.3919L66.4841 90.5124L49.9348 80.9329C49.9348 80.9329 49.9348 80.9329 49.8711 80.9329C49.3301 80.6465 48.6936 80.7738 48.2799 81.2194C47.898 81.6331 47.8343 82.2378 48.0889 82.7152C48.0889 82.7788 48.1526 82.8425 48.1844 82.8743L64.0972 104.643C60.5009 104.388 57.0001 103.561 53.6902 102.161C50.9532 101.015 48.4072 99.4872 46.0839 97.6414C45.511 97.164 44.9382 96.6866 44.3971 96.2092C44.0152 95.8591 43.6015 95.4772 43.2514 95.0953C42.0102 93.8541 40.8327 92.4856 39.8143 91.0535C39.3687 90.4488 38.955 89.8441 38.5731 89.2076C37.6819 87.7436 36.8863 86.216 36.218 84.6565C35.7088 83.479 35.295 82.2696 34.9449 81.0602C34.9449 81.0602 34.9449 81.0602 35.0086 81.0602H35.0722C35.0722 81.0602 35.1041 81.0602 35.1359 81.0602H35.1677C35.1677 81.0602 35.2314 81.0602 35.2632 81.0284L48.6299 75.3953L48.1526 76.1591C48.1526 76.1591 48.1526 76.1591 48.1526 76.2227C48.1526 76.2227 48.1526 76.2546 48.1207 76.2864C48.1207 76.2864 48.1207 76.2864 48.1207 76.35C48.1207 76.35 48.1207 76.3819 48.1207 76.4137V76.4774C48.1207 76.4774 48.0889 76.5092 48.0889 76.541C48.0889 76.541 48.0889 76.541 48.0889 76.6047C48.0889 76.6047 48.0889 76.6365 48.0889 76.6683V76.732V76.7956V76.8593C48.0889 76.8593 48.0889 76.9229 48.0889 76.9547V77.0184C48.0889 77.0184 48.0889 77.082 48.0889 77.1139V77.1775V77.2412V77.3048C48.0889 77.3048 48.0889 77.3366 48.1207 77.3685C48.1207 77.3685 48.1207 77.4003 48.1207 77.4321V77.4958C48.1207 77.4958 48.1526 77.5276 48.1844 77.5594C48.1844 77.5594 48.1844 77.5912 48.1844 77.6231V77.6867C48.1844 77.6867 48.248 77.7186 48.248 77.7504C48.248 77.7504 48.2799 77.8459 48.3117 77.8459H48.3435C48.3435 77.8459 48.3753 77.9095 48.4072 77.9413H48.439C48.439 77.9413 48.4708 78.005 48.5026 78.0368H48.5345C48.5345 78.0368 48.5663 78.1005 48.5981 78.1005L65.8476 88.2846C65.8476 88.2846 65.9431 88.3483 66.0067 88.3483C66.0704 88.3483 66.1022 88.3801 66.1658 88.4119H66.1977C66.1977 88.4119 66.2931 88.4119 66.325 88.4438H66.3568C66.3568 88.4438 66.5796 88.4438 66.675 88.4438H66.7069C66.7069 88.4438 66.8023 88.4438 66.8342 88.4438H66.866C66.866 88.4438 66.9615 88.4119 67.0251 88.3801C67.0888 88.3801 67.1206 88.3483 67.1842 88.3165L84.4019 78.1323H84.4655C84.4655 78.1323 84.5292 78.0368 84.5928 78.005C84.5928 78.005 84.6565 77.9095 84.7201 77.8777C84.7201 77.8777 84.7838 77.7504 84.8156 77.7186V77.6549L84.6247 77.5594L84.8156 77.6231C84.8156 77.6231 84.8156 77.5594 84.8793 77.5276C84.8793 77.5276 84.8793 77.5276 84.8793 77.4958C84.8793 77.4958 84.8793 77.4639 84.8793 77.4321C84.8793 77.4321 84.8793 77.4003 84.8793 77.3685V77.3048V77.2412V77.1775C84.8793 77.1775 84.8793 77.1139 84.8793 77.082C84.8793 77.082 84.8793 76.9866 84.8793 76.9547V76.8911C84.8793 76.8911 84.8793 76.8274 84.8793 76.7956C84.8793 76.7956 84.8793 76.732 84.8793 76.6683C84.8793 76.6683 84.8793 76.6683 84.8793 76.6365V76.5092C84.8793 76.5092 84.8156 76.4773 84.8156 76.4455C84.8156 76.4455 84.8156 76.3501 84.7838 76.3182L84.2746 75.5226L97.6413 81.1557H97.705C97.705 81.1557 97.7686 81.1875 97.8005 81.2194H97.8323C97.8641 81.2194 97.8959 81.2194 97.9596 81.2194C97.6095 82.4287 97.1639 83.6381 96.6866 84.8157C96.2092 85.8977 95.7 87.0116 95.0953 88.0619C94.7134 88.7302 94.3315 89.3667 93.9177 90.0032C92.6765 91.8809 91.2444 93.6632 89.6531 95.2544L89.5576 95.3499C89.0166 95.8591 88.4756 96.3683 87.9345 96.8457C85.3248 99.1053 82.3969 100.951 79.2143 102.288C75.9045 103.688 72.4036 104.516 68.7755 104.77L84.7201 82.4287L84.7838 82.3014ZM48.248 65.784C48.5981 65.784 48.9164 65.5612 49.1073 65.2747L50.2212 63.5243L51.3351 65.2747C51.5261 65.5612 51.8443 65.7521 52.1626 65.784C52.5127 65.784 52.8309 65.6567 53.0537 65.4021L54.1358 64.1609L54.9632 65.4657L50.7623 72.0854H50.7304C50.4122 71.9263 50.0303 71.9263 49.712 72.0854L38.223 76.9229L46.3067 64.1609L47.3887 65.4021C47.6115 65.6567 47.9616 65.8158 48.2799 65.784H48.248ZM52.8946 62.2195L52.3535 62.856L51.1123 60.9146C50.9214 60.5964 50.5713 60.4054 50.1894 60.4054C49.8075 60.4054 49.4574 60.5964 49.2665 60.9146L48.0253 62.856L47.4842 62.2195L50.1894 57.9549L52.8946 62.2195ZM66.6432 68.2663C66.6432 68.2663 66.6432 68.2663 66.6114 68.2663V68.4573L66.5796 68.2663C66.5477 68.2663 66.5159 68.2663 66.4841 68.2663V68.4573L66.4523 68.2663C66.4523 68.2663 66.4523 68.2663 66.4204 68.2663C66.3568 68.2663 66.2931 68.2664 66.2295 68.2982H66.1658H66.134C66.134 68.2982 66.1022 68.2982 66.0704 68.33L52.7673 73.9313L61.7103 59.8326L62.6014 58.4323L63.7471 59.8008C63.7471 59.8008 64.0017 60.0554 64.1926 60.119C64.3518 60.1827 64.5109 60.2145 64.67 60.1827C65.0201 60.1827 65.3384 59.9599 65.5293 59.6734L66.6432 57.923L67.7571 59.6734C67.7571 59.6734 67.9162 59.8644 68.0117 59.9599C68.1708 60.0872 68.3936 60.1827 68.5846 60.1827C68.9347 60.1827 69.2529 60.0554 69.4757 59.8008L70.6214 58.4323L80.4555 73.9313L67.1206 68.33C67.1206 68.33 67.0888 68.33 67.0569 68.33H67.0251L66.9615 68.2982C66.8978 68.2982 66.8342 68.2982 66.7705 68.2663H66.6432ZM69.2211 56.6182L68.6482 57.2865L67.407 55.3452C67.2161 55.0269 66.866 54.836 66.4841 54.836C66.1022 54.836 65.7521 55.0269 65.5611 55.3452L64.3199 57.2865L63.7471 56.6182C63.7471 56.6182 63.7153 56.5545 63.6834 56.5545L66.4841 52.1626L69.2847 56.5545C69.2847 56.5545 69.2211 56.5864 69.2211 56.6182ZM65.1792 71.5762V84.6884L52.2262 77.0502L65.1792 71.5762ZM80.7738 77.0184L67.8208 84.6565V71.5444L80.7738 77.0184ZM83.3198 72.0536C83.1607 71.9899 82.9697 71.9581 82.8106 71.9581C82.6515 71.9581 82.4605 71.9899 82.3014 72.0536H82.2696L78.0686 65.4339L78.8961 64.1609L79.9463 65.4021C80.1691 65.6567 80.5192 65.8158 80.8374 65.784C81.1875 65.784 81.5058 65.5612 81.6967 65.2747L82.8106 63.5243L83.9245 65.2747C84.1155 65.5612 84.4337 65.7521 84.752 65.784C85.1021 65.784 85.4203 65.6567 85.6431 65.4021L86.7252 64.129L94.8407 76.9229L83.3516 72.0854L83.3198 72.0536ZM84.9429 62.856L83.7017 60.9146C83.5744 60.7237 83.4153 60.5964 83.1925 60.5009C83.0652 60.4373 82.9061 60.4054 82.7788 60.4054C82.3969 60.4054 82.0468 60.5964 81.8558 60.9146L80.6146 62.856L80.0736 62.2195L82.7788 57.9549L85.484 62.1877L84.9111 62.856H84.9429ZM9.1344 19.7005C9.54813 19.2868 9.83456 18.7139 9.89821 18.1092C9.96186 17.5046 9.80274 16.868 9.45265 16.3588L5.95184 11.1713L11.6168 15.5314C12.6352 16.327 14.0674 16.2634 15.0221 15.4041H15.054L15.1494 15.2449C16.0405 14.2902 16.136 12.8262 15.3404 11.776L10.9803 6.111L16.1679 9.57999C17.2181 10.2801 18.6502 10.1528 19.5414 9.26173C19.605 9.19808 19.6687 9.13443 19.7005 9.07078C20.5598 8.02053 20.4961 6.49291 19.5414 5.50631L16.8998 2.86479C23.4559 4.20146 30.6485 8.40244 36.759 14.513C44.6836 22.4693 47.3569 30.3303 44.8745 38.6049C44.5881 39.5279 44.8745 40.5463 45.5429 41.2464L46.6886 42.3922L46.4976 42.5513C44.7472 43.7288 43.1241 45.0973 41.5965 46.5613L40.8963 45.8611C40.6417 45.6065 40.3553 45.4156 40.037 45.2883C40.037 45.2883 39.8779 45.2246 39.8143 45.1928C39.8143 45.1928 39.6551 45.161 39.5915 45.1292C39.5915 45.1292 39.5597 45.1292 39.5278 45.1292H39.4642C39.4642 45.1292 39.3687 45.1292 39.3369 45.1292C38.9868 45.0973 38.6367 45.1292 38.3185 45.2246C38.0002 45.3201 37.6501 45.4156 37.2364 45.5111C29.4391 47.3888 21.9601 44.6199 14.3538 36.9818C11.1712 33.7993 8.49789 30.3303 6.46105 26.734C4.58334 23.4559 3.34214 20.2097 2.70563 17.0908L5.34715 19.7323C6.33375 20.6871 7.86137 20.7508 8.91162 19.8915C8.97527 19.8278 9.03892 19.796 9.10257 19.7323L9.1344 19.7005ZM41.1509 96.7184L20.7507 117.119C20.146 117.755 19.3186 118.073 18.4275 118.073C17.5364 118.073 16.7089 117.723 16.1042 117.119C15.4995 116.514 15.1494 115.686 15.1494 114.795C15.1494 113.936 15.4995 113.109 16.1042 112.472L36.95 91.6263C37.2682 92.1037 37.5865 92.5493 37.8729 92.9312L38.032 93.0903C38.9868 94.3633 40.0052 95.5727 41.1191 96.6866L41.1509 96.7184ZM65.1792 92.8357V101.62L54.0721 86.4069L65.1792 92.8357ZM78.8642 86.0569L67.8208 101.524V92.8039L78.8642 86.0569ZM116.864 112.504C117.5 113.14 117.819 113.968 117.819 114.827C117.819 115.686 117.469 116.514 116.864 117.15C116.259 117.755 115.432 118.105 114.541 118.105C113.681 118.105 112.854 117.755 112.249 117.15L91.8491 96.7503C93.3767 95.1908 94.777 93.4722 95.9864 91.6263L116.864 112.504Z" fill="#FF65AF"/>
<path d="M97.7372 42.1376C99.3285 42.5832 100.856 42.7741 102.225 42.7741C105.853 42.7741 108.59 41.5648 109.513 41.0556C112.504 39.4961 118.392 35.1678 121.575 28.7391C121.925 28.0389 121.638 27.1796 120.938 26.8295C120.588 26.6704 120.206 26.6386 119.856 26.7659C119.506 26.8932 119.219 27.1478 119.029 27.466C117.469 30.6486 113.045 36.1544 108.081 38.4777C105.089 39.878 102.479 40.4827 98.151 39.3052C96.9098 38.9551 96.1459 39.4643 95.955 40.1008C95.764 40.7691 96.2414 41.7239 97.7372 42.1376Z" fill="#FF65AF"/>
</svg>
